<svg xmlns="http://www.w3.org/2000/svg" xmlns:xlink="http://www.w3.org/1999/xlink" viewBox="0,0,256,256" width="96px" height="96px" fill-rule="nonzero"><g fill="#ffffff" fill-rule="nonzero" stroke="none" stroke-width="1" stroke-linecap="butt" stroke-linejoin="miter" stroke-miterlimit="10" stroke-dasharray="" stroke-dashoffset="0" font-family="none" font-weight="none" font-size="none" text-anchor="none" style="mix-blend-mode: normal"><g transform="scale(8,8)"><path d="M16,4c-6.61719,0 -12,5.38281 -12,12c0,6.61719 5.38281,12 12,12c6.61719,0 12,-5.38281 12,-12c0,-6.61719 -5.38281,-12 -12,-12zM16,6c2.53516,0 4.83203,0.95313 6.59375,2.5c-0.1875,0.26172 -0.44141,0.57813 -0.84375,0.96875c-0.85547,0.82813 -2.22266,1.82422 -4.3125,2.59375c-1.41406,-2.61328 -2.80078,-4.57812 -3.71875,-5.8125c0.73047,-0.16797 1.49609,-0.25 2.28125,-0.25zM11.75,6.9375c0.82031,1.07422 2.28125,3.06641 3.75,5.71875c-4.06641,1.07813 -7.79687,1.21484 -9.28125,1.21875c0.66406,-3.08984 2.74219,-5.63281 5.53125,-6.9375zM23.96875,9.96875c1.21875,1.61328 1.97656,3.60938 2.03125,5.78125c-0.89062,-0.19922 -2.20312,-0.39453 -3.90625,-0.40625c-0.88672,-0.00391 -1.89062,0.05859 -2.96875,0.1875c-0.25,-0.57031 -0.51953,-1.12109 -0.78125,-1.65625c2.24219,-0.85937 3.76953,-1.99219 4.78125,-2.96875c0.34375,-0.33594 0.61328,-0.64453 0.84375,-0.9375zM16.40625,14.46875c0.23047,0.46484 0.46484,0.94141 0.6875,1.4375c-4.27344,1.18359 -7.34375,4.80859 -8.65625,6.625c-1.51172,-1.75 -2.4375,-4.03125 -2.4375,-6.53125c0,-0.04297 0,-0.08203 0,-0.125c1.35156,0.01563 5.64844,-0.07812 10.40625,-1.40625zM22.09375,17.3125c1.78516,0 3.01953,0.25 3.75,0.4375c-0.46484,2.66406 -1.96875,4.94922 -4.09375,6.4375c-0.39844,-2.39062 -1.05469,-4.66406 -1.84375,-6.75c0.78906,-0.07812 1.53516,-0.125 2.1875,-0.125zM17.875,17.78125c0.89844,2.28125 1.65234,4.78516 2.03125,7.4375c-1.19531,0.50391 -2.52344,0.78125 -3.90625,0.78125c-2.29297,0 -4.41016,-0.76953 -6.09375,-2.0625c1.02734,-1.40625 4.04688,-5.14844 7.96875,-6.15625z"></path></g></g></svg>