<svg xmlns="http://www.w3.org/2000/svg" xmlns:xlink="http://www.w3.org/1999/xlink" viewBox="0,0,256,256" width="96px" height="96px" fill-rule="nonzero"><g fill="#ffffff" fill-rule="nonzero" stroke="none" stroke-width="1" stroke-linecap="butt" stroke-linejoin="miter" stroke-miterlimit="10" stroke-dasharray="" stroke-dashoffset="0" font-family="none" font-weight="none" font-size="none" text-anchor="none" style="mix-blend-mode: normal"><g transform="scale(8,8)"><path d="M8.64258,4c-1.459,0 -2.64258,1.18163 -2.64258,2.64063c0,1.459 1.18262,2.66797 2.64063,2.66797c1.458,0 2.64258,-1.20897 2.64258,-2.66797c0,-1.458 -1.18163,-2.64062 -2.64062,-2.64062zM21.53516,11c-2.219,0 -3.48866,1.16045 -4.09766,2.31445h-0.06445v-2.00391h-4.37305v14.68945h4.55664v-7.27148c0,-1.916 0.14463,-3.76758 2.51563,-3.76758c2.337,0 2.37109,2.18467 2.37109,3.88867v7.15039h4.55078h0.00586v-8.06836c0,-3.948 -0.84884,-6.93164 -5.46484,-6.93164zM6.36328,11.31055v14.68945h4.56055v-14.68945z"></path></g></g></svg>